<?xml version="1.0" encoding="UTF-8" standalone="no"?>
<svg width="16px" height="16px" viewBox="0 0 16 16" version="1.1" xmlns="http://www.w3.org/2000/svg" xmlns:xlink="http://www.w3.org/1999/xlink" xmlns:sketch="http://www.bohemiancoding.com/sketch/ns">
    <!-- Generator: Sketch 3.3.2 (12043) - http://www.bohemiancoding.com/sketch -->
    <title>Shape Copy</title>
    <desc>Created with Sketch.</desc>
    <defs></defs>
    <g id="Welcome" stroke="none" stroke-width="1" fill="none" fill-rule="evenodd" sketch:type="MSPage">
        <g id="Articles" sketch:type="MSArtboardGroup" transform="translate(-145.000000, -379.000000)" fill="#FFFFFF">
            <g id="Card" sketch:type="MSLayerGroup" transform="translate(126.000000, 355.000000)">
                <g id="Mask-+-Bitmap-+-Хабрахабр" transform="translate(4.000000, 8.000000)" sketch:type="MSShapeGroup">
                    <g id="Bitmap-+-Rectangle-88" transform="translate(-15.000000, -6.000000)">
                        <path d="M44.6,23.6 C43.7,22.6 42.5,22 41.2,22 C40,22 38.9,22.5 38,23.3 C37.1,22.5 36,22 34.8,22 C33.6,22 32.3,22.6 31.4,23.6 C30.5,24.6 30,25.9 30,27.2 C30,32.1 37.5,37.6 37.8,37.9 L38,38 L38.2,37.8 C38.5,37.6 46,32 46,27.1 C46,25.9 45.5,24.6 44.6,23.6 L44.6,23.6 Z" id="Shape-Copy"></path>
                    </g>
                </g>
            </g>
        </g>
    </g>
</svg>