<?xml version="1.0" encoding="UTF-8" standalone="no"?>
<svg width="166px" height="34px" viewBox="0 0 166 34" version="1.1" xmlns="http://www.w3.org/2000/svg" xmlns:xlink="http://www.w3.org/1999/xlink" xmlns:sketch="http://www.bohemiancoding.com/sketch/ns">
    <!-- Generator: Sketch 3.3.2 (12043) - http://www.bohemiancoding.com/sketch -->
    <title>@2x</title>
    <desc>Created with Sketch.</desc>
    <defs></defs>
    <g id="Welcome" stroke="none" stroke-width="1" fill="none" fill-rule="evenodd" sketch:type="MSPage">
        <g id="Bookmarks-Shared" sketch:type="MSArtboardGroup" transform="translate(-130.000000, -19.000000)">
            <g id="@2x" sketch:type="MSLayerGroup" transform="translate(130.000000, 19.000000)">
                <g id="Group-Copy-3" transform="translate(3.170456, 5.000000)"></g>
                <g id="Group" transform="translate(0.050071, 5.000000)" fill="#FFFFFF" sketch:type="MSShapeGroup">
                    <path d="M9.85889057,0.0814804494 L6.68491349,0.0814804494 C3.56754025,0.0814804494 0.922975554,2.22693488 0.922975554,6.392548 C0.922975554,8.89131385 2.20446984,10.7342524 4.48610404,11.6429288 L0.227497492,18.6101998 C0.0884851203,18.837463 0.227497492,19.0135543 0.449750804,19.0135543 L2.42630695,19.0135543 C2.59320504,19.0135543 2.70433169,18.963135 2.76010312,18.837463 L6.62955827,11.9962402 L8.0213468,11.9962402 L8.0213468,18.837463 C8.0213468,18.913092 8.10500395,19.0135543 8.2157144,19.0135543 L9.94254772,19.0135543 C10.1090296,19.0135543 10.1652172,18.9379253 10.1652172,18.8122533 L10.1652172,0.333953252 C10.1652172,0.157109411 10.0536744,0.0814804494 9.85889057,0.0814804494 L9.85889057,0.0814804494 Z M8.0213468,10.3805648 L6.85222778,10.3805648 C5.01468401,10.3805648 3.23332787,9.16899631 3.23332787,6.13969893 C3.23332787,2.98397703 4.90355735,1.69677962 6.60167255,1.69677962 L8.0213468,1.69677962 L8.0213468,10.3805648 Z" id="Fill-7"></path>
                    <path d="M20.3217358,6.35755549 L18.5957349,6.35755549 C18.4563063,6.35755549 18.3730654,6.45839411 18.3730654,6.53364681 L18.3730654,11.3550872 L15.1716188,11.3550872 L15.1716188,6.53364681 C15.1716188,6.40759854 15.1166798,6.35755549 14.9772512,6.35755549 L13.2508341,6.35755549 C13.1126541,6.35755549 13.028997,6.43318446 13.028997,6.53364681 L13.028997,18.8024705 C13.028997,18.9285188 13.0847684,19.0037715 13.2229483,19.0037715 L14.9772512,19.0037715 C15.088794,19.0037715 15.1716188,18.9285188 15.1716188,18.8024705 L15.1716188,12.9459292 L18.3730654,12.9459292 L18.3730654,18.8024705 C18.3730654,18.9285188 18.4563063,19.0037715 18.5957349,19.0037715 L20.3217358,19.0037715 C20.4607482,19.0037715 20.5165196,18.9033091 20.5165196,18.8024705 L20.5165196,6.53364681 C20.5165196,6.43318446 20.4328625,6.35755549 20.3217358,6.35755549" id="Fill-9"></path>
                    <path d="M59.7264157,18.196611 L59.5037462,17.338354 C59.4766929,17.262725 59.4488072,17.2375154 59.3655662,17.2375154 C59.2261376,17.2375154 58.4744719,17.5144453 57.3885939,17.5144453 C55.2734416,17.5144453 54.2429187,15.6726355 54.2429187,12.7441768 C54.2429187,10.1686532 55.1061273,7.61946799 56.5541034,7.61946799 C56.943671,7.61946799 57.4168958,7.72030661 58.1677291,8.35205301 C58.2513862,8.42768197 58.3067415,8.45251537 58.3903986,8.45251537 C58.4744719,8.45251537 58.5577129,8.40134353 58.6417862,8.27567152 L59.3934519,7.16569422 C59.4488072,7.08931273 59.4766929,7.01293125 59.4766929,6.93730228 C59.4766929,6.83683993 59.3655662,6.76121097 59.1982519,6.68558201 C58.0561862,6.15505048 57.2778834,6.05458813 56.6094587,6.05458813 C53.9927797,6.05458813 51.9604521,8.88183201 51.9604521,13.2987891 C51.9604521,17.1103383 53.9091225,19.3069646 56.6926996,19.3069646 C57.862651,19.3069646 59.115011,18.8023952 59.6161215,18.4735409 C59.7264157,18.3982882 59.7543014,18.2974496 59.7264157,18.196611" id="Fill-11"></path>
                    <path d="M47.6287184,12.0618605 L50.968345,6.53379731 C51.0245326,6.45816835 50.9962307,6.357706 50.8846878,6.357706 L49.2427602,6.357706 C48.7695355,6.357706 48.6022212,6.50858766 48.4361555,6.83706569 L45.930187,11.5572912 C45.7915908,11.8353499 45.6525785,12.0114412 45.5131499,12.0878227 L45.5131499,6.53379731 C45.5131499,6.4329587 45.4573785,6.357706 45.3462518,6.357706 L43.5365937,6.357706 C43.4533528,6.357706 43.3696957,6.4329587 43.3696957,6.53379731 L43.3696957,18.8274544 C43.3696957,18.9030833 43.4254671,19.003922 43.5365937,19.003922 L45.3462518,19.003922 C45.4573785,19.003922 45.5131499,18.928293 45.5131499,18.8274544 L45.5131499,12.4911772 C45.5963908,12.5419728 45.6525785,12.6172255 45.7079337,12.7188166 L48.8810784,18.6254009 C49.0483926,18.928293 49.2989479,19.003922 49.6614622,19.003922 L51.4424021,19.003922 C51.5535288,19.003922 51.5814145,18.9030833 51.5256431,18.8274544 L47.6287184,12.0618605 Z" id="Fill-13"></path>
                    <path d="M31.6791714,17.4137572 L31.344959,17.4137572 C30.9275057,17.4137572 30.8159629,17.2628755 30.8159629,16.9599834 L30.8159629,6.53372206 C30.8159629,6.40805006 30.7601914,6.35763075 30.6486486,6.35763075 L25.0814944,6.35763075 C24.9424821,6.35763075 24.8592411,6.43288345 24.8592411,6.53372206 L24.8592411,7.44239839 C24.8592411,10.4972817 24.6640411,14.4348791 22.882685,17.4137572 L22.2700316,17.4137572 C22.1027173,17.4137572 22.0473621,17.4901387 22.0473621,17.6158107 L22.0473621,21.3016879 C22.0473621,21.4281124 22.1584888,21.4774029 22.2421459,21.4774029 L23.5789954,21.4774029 C23.8844897,21.4774029 23.9956163,21.2764782 23.9956163,21.0992581 L23.9956163,19.0038467 L29.9531705,19.0038467 L29.9531705,21.3016879 C29.9531705,21.4017739 30.0359952,21.4774029 30.1471219,21.4774029 L31.5676285,21.4774029 C31.7341104,21.4774029 31.9005923,21.3517309 31.9005923,21.0992581 L31.9005923,17.6158107 C31.9005923,17.4901387 31.8177676,17.4137572 31.6791714,17.4137572 L31.6791714,17.4137572 Z M28.6725086,17.4137572 L24.6361554,17.4137572 C26.056662,15.2178835 26.6127115,12.7443273 26.8074953,9.71502989 C26.8632668,9.05845009 26.8911525,8.37666065 26.8911525,7.94772026 L28.6725086,7.94772026 L28.6725086,17.4137572 Z" id="Fill-15"></path>
                    <path d="M37.3573273,6.05458813 C34.3519132,6.05458813 33.0150637,9.48761623 33.0150637,13.2231602 C33.0150637,17.0354619 34.9075464,19.3065883 37.6915397,19.3065883 C39.0550263,19.3065883 40.2524473,18.8276049 40.8642682,18.4735409 C40.975811,18.4234979 41.0036968,18.3478689 40.975811,18.2470303 L40.7531415,17.388397 C40.7248396,17.2875584 40.6694844,17.2375154 40.5300558,17.2375154 C40.4193454,17.2375154 39.6119082,17.514069 38.4702587,17.514069 C36.3272207,17.514069 35.3249998,15.8238934 35.3249998,13.6024338 L35.3249998,13.0049274 C35.3249998,13.0049274 36.4104616,13.1223216 37.0510007,13.1223216 L41.1152396,13.1223216 L41.1152396,12.062011 C41.1152396,8.14999952 39.5836063,6.05458813 37.3573273,6.05458813 L37.3573273,6.05458813 Z M37.0510007,11.5326083 C36.4104616,11.5326083 35.4086569,11.6334469 35.4086569,11.6334469 C35.4086569,11.6334469 35.4086569,11.2545496 35.4648445,10.8500663 C35.7141512,8.7046119 36.299335,7.61984426 37.2740864,7.61984426 C38.1647645,7.61984426 38.7212302,8.7294453 38.8606587,10.6735988 C38.8881282,11.0773295 38.8881282,11.5326083 38.8881282,11.5326083 L37.0510007,11.5326083 Z" id="Fill-17"></path>
                </g>
                <g id="logo" transform="translate(69.000000, 0.000000)" fill="#FFFFFF">
                    <g id="Rectangle-3-+-Маркет">
                        <path d="M0,0 L89,0 L97,17 L89,34 L0,34 L0,0 Z M3,3 L87,3 L94,17 L87,31 L3,31 L3,3 Z" id="Rectangle-3" sketch:type="MSShapeGroup"></path>
                        <text id="Закладки" sketch:type="MSTextLayer" font-family="Textbook New" font-size="16" font-weight="normal">
                            <tspan x="13" y="22">Закладки</tspan>
                        </text>
                    </g>
                </g>
            </g>
        </g>
    </g>
</svg>