<?xml version="1.0" encoding="UTF-8" standalone="no"?>
<svg width="14px" height="15px" viewBox="0 0 14 15" version="1.1" xmlns="http://www.w3.org/2000/svg" xmlns:xlink="http://www.w3.org/1999/xlink" xmlns:sketch="http://www.bohemiancoding.com/sketch/ns">
    <!-- Generator: Sketch 3.3.2 (12043) - http://www.bohemiancoding.com/sketch -->
    <title>Shape Copy</title>
    <desc>Created with Sketch.</desc>
    <defs></defs>
    <g id="Welcome" stroke="none" stroke-width="1" fill="none" fill-rule="evenodd" sketch:type="MSPage">
        <g id="Bookmarks-Shared" sketch:type="MSArtboardGroup" transform="translate(-1067.000000, -28.000000)" fill="#FFFFFF">
            <path d="M1077.92093,38.7709332 C1078.72435,37.7320815 1079.2,36.4350824 1079.2,35.05 C1079.2,31.65 1076.4,28.95 1073.1,28.95 C1069.7,28.95 1067,31.75 1067,35.05 C1067,38.45 1069.7,41.15 1073.1,41.15 C1074.4567,41.15 1075.70194,40.7041736 1076.70865,39.9586509 L1079.8,43.05 L1081,41.85 L1077.92093,38.7709332 Z M1068.7,35.05 C1068.7,32.65 1070.6,30.75 1073,30.75 C1075.4,30.75 1077.3,32.65 1077.3,35.05 C1077.3,37.45 1075.4,39.35 1073,39.35 C1070.6,39.45 1068.7,37.45 1068.7,35.05 Z" id="Shape-Copy" sketch:type="MSShapeGroup"></path>
        </g>
    </g>
</svg>